<svg viewBox="0 0 400 490">
	<path d="M350.6,322.1c-6.2,0.4-12.4,0.8-18.7,1.3c-1.5,0.1-3,0.5-4.5,0.4c-1-0.1-2.8-0.6-2.9-1.2c-0.2-1,0.3-2.5,1.1-3.3
		c3.3-3.5,7.1-6.5,10.2-10.2c12.3-14.7,19.3-32.1,24.6-50.3c1.2-4.2,2-8.6,3.2-12.8c0.4-1.3,1.2-3.2,2.2-3.4c1-0.2,2.7,1,3.5,2
		c11.4,15.3,19.1,32.3,24.2,50.6c4.2,15.1,6.7,30.5,6.7,46.2c0,1.3-0.9,2.6-1.4,3.9c-1.3-0.6-2.8-1-3.9-2c-4.6-3.9-9.1-8-14-12.4
		c-1.9,5.3-3.4,9.8-5,14.3c-16.4,43.6-45.7,75.9-86.5,97.8c-14.9,8-30.7,14.6-46.1,21.6c-14,6.4-27.7,13-39.3,23.4
		c-2.7,2.4-4.9,2.5-7.5,0.2c-14.1-12.5-31-20-48.1-27.2c-21.9-9.2-43.2-19.5-62.3-33.8c-32.1-23.9-53.4-55.2-65.5-93.2
		c-0.2-0.6-0.4-1.1-0.6-1.7c-0.1-0.2-0.2-0.4-0.6-1.2c-3.8,3.2-7.6,6.2-11.2,9.3c-1.2,1-2.1,2.5-3.4,3.4c-0.9,0.7-2.3,1.3-3.3,1.1
		c-0.7-0.2-1.5-1.9-1.4-2.8c0.7-9.4,1-18.8,2.5-28.1c3.9-24.2,12.3-46.7,26.4-67c0.8-1.1,1.5-2.4,2.5-3.3c0.8-0.7,2.2-1.6,2.9-1.3
		c0.9,0.4,1.8,1.8,2.1,2.9c2,7,3.4,14.2,5.7,21.1c5,15.5,11.7,30.2,22.4,42.8c2.8,3.3,6.1,6,9.1,9.2c1,1,2.2,2.7,2,3.8
		c-0.4,2.3-2.6,1.5-4.2,1.4c-7.3-0.5-14.5-1.1-22.4-1.7c0.6,1.7,0.9,2.8,1.3,3.9c11.9,29.1,33.5,48.3,62.3,59.6
		c12.8,5.1,26.3,7.7,40,8.8c11.4,0.9,18-5.2,18.4-17c0.6-17.8,1-35.6,1.6-53.4c1.4-48.8,2.8-97.7,4.3-146.5c0.3-9.2-3.2-13-12.3-13.7
		c-17.7-1.3-35.3-2.5-53-3.9c-7.7-0.6-12.6-6.6-12.4-14.3c0.2-7,5.8-12.4,13.2-13c18.7-1.3,37.3-2.6,56-4c6.8-0.5,9.6-4.1,10.3-10.8
		c0.6-6.1-1.2-9.2-6.9-12.3c-20.9-11.5-31.8-35.7-27.4-58.9c4.6-24.1,23.7-42.6,47.8-46c27.8-3.9,53.9,13,62.2,40.2
		c7.9,26-4.6,54.6-29.4,66.6c-2.6,1.3-3.9,2.6-3.4,5.6c0.3,1.8,0.1,3.6,0.1,5.4c0.1,5.9,3.6,9.7,9.6,10.1c9.3,0.7,18.6,1.1,27.9,1.8
		c10.1,0.7,20.2,1.5,30.2,2.4c6.6,0.6,11.7,6.6,11.7,13.5c0,7-4.9,13-11.9,13.6c-15.5,1.3-30.9,2.4-46.4,3.5
		c-2.8,0.2-5.6,0.4-8.4,0.5c-7.1,0.4-11.2,4.7-11.1,11.9c0.2,11.7,0.6,23.4,0.9,35.1c0.6,20.6,1.2,41.2,1.8,61.8
		c1,33.7,2,67.4,3,101.2c0.1,2.4,0.2,4.8,0.4,7.2c0.8,7.1,5.7,12.7,12.8,12.9c6.9,0.2,14-0.6,20.8-1.8c22.8-3.9,43.2-12.9,60.5-28.5
		c11.7-10.6,20.6-23.1,26.4-37.8c0.3-0.8,0.6-1.7,0.9-2.5C350.8,323,350.7,322.8,350.6,322.1z M228.3,56.7
		c0-15.6-12.5-28.3-28.2-28.4c-15.6-0.1-28.4,12.7-28.4,28.4c0,15.5,12.8,28.3,28.3,28.3C215.6,85,228.3,72.2,228.3,56.7z"/>
</svg>
