<svg viewBox="0 0 450 355">
	<path d="M450,181.9c0,5,0,10,0,15c-1.4,6.6-2.3,13.2-4.3,19.6c-13.1,42.9-41.4,70.3-83.9,83.2c-2.9,0.9-4.5,0.2-6.5-1.8
		c-12.2-12.3-24.1-24.9-37-36.5c-31-28-67.7-39.4-108.9-35.1c-30.7,3.2-57.6,15.7-80.1,37.2c-11.9,11.4-23.3,23.2-35.1,34.7
		c-1.2,1.2-3.7,2.1-5.2,1.7c-45.4-13.6-74.8-43.1-86.4-89.7c-1.1-4.4-1.8-8.8-2.7-13.2c0-5,0-10,0-15c3.3-7.6,9.2-9.9,17.2-9.9
		c18.4,0.2,36.9,0.2,55.3-0.8c16.4-0.9,31.7-16.7,33-33.3c0.8-10.1,0.8-20.3,0.8-30.5c-0.1-27.5,8.1-52.1,24.6-73.9
		c9.9-13.1,22.1-23.5,36.3-31.5c8-4.5,16.3-1.3,19.6,7.3c0.7,1.8,1.2,3.6,1.9,5.4c6.8,17.6,26.9,28.2,45.1,23.5
		c14.5-3.7,23.8-13,28.7-27.2c3.9-11.2,11.9-14.1,22-7.8c5.6,3.5,11.2,7.1,16.2,11.4C325,35.2,339.6,61.2,342.7,93
		c1.2,12.1,0.3,24.4,1.1,36.6c0.4,6.6,1.4,13.7,4.1,19.6c7.2,15.8,20.5,22.7,37.4,22.9c16,0.2,31.9,0.3,47.9-0.1
		C441.2,171.9,446.8,174.6,450,181.9z M224.9,176.8c6.4,6.7,11.8,12.6,17.4,18.1c3.7,3.7,8.3,4.8,13.4,2.9c4.8-1.8,7.6-5.3,8.5-10.3
		c0.9-4.9-1.2-8.9-4.6-12.3c-5.3-5.4-10.7-10.8-16.5-16.7c6.1-6,12.1-11.2,17.4-17c7.4-8,3.4-20-7.2-22.1c-4.9-0.9-8.8,1.1-12.2,4.5
		c-5.3,5.4-10.6,10.8-16.4,16.7c-5.9-6.1-11.1-11.9-16.7-17.3c-6.4-6.2-15.3-5.4-20.2,1.5c-3.8,5.4-3.2,11.9,1.9,17.2
		c5.4,5.6,11,10.9,17,16.7c-6,5.9-11.4,11.2-16.8,16.6c-3.3,3.3-5.2,7.2-4.3,11.9c0.9,5,3.7,8.6,8.5,10.4c5,1.9,9.7,0.8,13.4-2.9
		C213.3,189.3,218.7,183.3,224.9,176.8z"/>
	<path d="M225.5,251.7c31.3,0.5,58.3,11.9,80.8,34.3c8.5,8.5,16.9,17.1,25.5,25.5c2,1.9,2,3.3,0.8,5.6c-4.8,9.4-9.4,18.9-14.2,28.4
		c-5.6,11.1-15.2,12.6-24.1,3.7c-8.2-8.2-16.3-16.5-24.5-24.7c-25.4-25.4-64.3-25.5-89.7-0.1c-8.3,8.3-16.5,16.7-24.8,25
		c-8.6,8.6-18.3,7-23.8-3.8c-4.8-9.6-9.6-19.1-14.3-28.8c-0.6-1.2-0.7-3.5,0-4.1c13.1-12.8,25.7-26.3,39.8-37.9
		C176.6,258.7,200,252,225.5,251.7z"/>
</svg>