<svg viewBox="0 0 500 415" >
	<path d="M377.4,415c-4-1-8-1.8-12-2.9c-34.7-9.8-58.8-39.6-61.1-75.9c-0.4-7.2,0.2-14.5,1-21.7c0.4-4-0.6-6.4-4.1-8.4
		c-37.5-21.4-71-47.8-100.5-79.4c-28.4-30.4-51.4-64.5-69.5-102c-2.1-4.5-1.9-7.4,2.3-10.5c4.7-3.5,9-7.6,14.4-12.3
		c-3.3-1-5.7-1.8-8.1-2.4c-5.8-1.4-11.6-2.5-17.3-4.2c-2.1-0.6-4.6-2.5-5.3-4.4c-10.8-28.6-18.5-58-22.2-88.4c-0.1-0.5,0-1,0.1-2.4
		c1.4,1.6,2.5,2.6,3.4,3.8c26.4,32.6,59.9,49.8,102.2,48.5c1.2,0,2.3,0.1,3.5-0.1c4.5-0.7,6.4,1,6.9,5.8
		c2.1,23.1,5.4,46.2,12.8,68.2c6.2,18.4,14.2,36.3,21.5,54.3c1,2.4,2.6,4.5,4.7,7.9c2-3.3,3.7-5.6,5-8.1
		c16.3-31.6,26.5-65.2,31.6-100.4c1.1-7.5,2.1-15.1,2.7-22.7c0.3-4.1,2.1-5.3,6-5.1c15.2,0.7,30.2-0.4,44.9-5.1
		C364.4,39.5,384,25,400.2,5.5c1.4-1.6,2.7-3.3,5-4.8c-0.1,1.8-0.2,3.6-0.4,5.4c-4.1,28.4-11.1,56.1-21,83.1
		c-1.3,3.7-3.5,5.7-7.3,6.4c-6.3,1.2-12.5,2.8-18.8,4.3c-1.5,0.4-3,0.9-5.5,1.8c5.5,4.8,10,9,14.9,12.8c3.5,2.7,4,5.2,2.1,9.3
		c-19.5,41.2-45.2,78-77.1,110.4c-5.9,6-6,6.1,0,12c8.1,8,16.5,15.7,24.7,23.5c2.9,2.8,5.1,2.6,7.5-0.9c3.3-4.8,6.9-9.3,10.7-13.6
		c7.5-8.5,19.7-9.2,27.9-1.9c8.2,7.3,8.8,20.3,1.2,28.6c-2.8,3.1-5.8,5.8-8.7,8.8c-3.9,4.2-3.8,5.2,1,8.3
		c20.8,13.4,42.8,24.7,65.5,34.4c5,2.1,10.1,3.9,15.1,6.2c4,1.9,6.8,1.1,10-2c15.4-14.8,39.5-10.8,49.4,8.1c6.7,12.8,3.6,30-7,39.1
		c-11.8,10.1-27.1,10.7-39.5,1.5c-5.3-3.9-5.4-4-9.5,1.3c-11.3,14.5-26.1,23-43.9,26.3c-1.4,0.3-2.9,0.7-4.3,1.1
		C387.3,415,382.3,415,377.4,415z M393.7,396.9c15.5,0,33.4-9,42.9-21.4c4.3-5.6,1.5-14.2-5.3-16.1c-28.4-7.8-56.3-17.3-83.2-29.4
		c-2.3-1-4.6-1.9-6.8-3c-3.5-1.7-5.3-0.3-5.8,3.3c-0.2,1.1-0.3,2.3-0.4,3.4C332.7,366.7,360.9,397,393.7,396.9z"/>
	<path d="M107.9,415c-4.8-1.2-9.7-2-14.3-3.5C80.1,407,68.8,399.3,60,388c-4.4-5.7-4.5-5.6-10.2-1.5C32.6,399,9,391.7,1.9,371.8
		c-5.1-14.2,0.1-30,12.4-38.1c12.4-8.1,27.8-6.6,38.9,4.2c2.7,2.6,5.1,3.5,8.7,2.1c28.1-11,55.2-24.1,80.7-40.4
		c5.7-3.7,5.8-4.7,1.1-9.7c-2.6-2.8-5.4-5.3-8-8.1c-7.2-8-6.9-20.5,0.7-27.9c7.8-7.6,19.6-7.6,27.4,0.6c4.4,4.6,8.3,9.8,12.2,15
		c2.1,2.8,3.9,3.1,6.5,0.9c4.5-4.1,9.2-8,13.6-12.2c2.9-2.8,5.1-2.6,8,0.1c8.2,7.6,16.6,15,25.1,22.3c3,2.6,3.5,4.4-0.2,6.7
		c-9.5,5.9-18.7,12.4-28.4,17.9c-4.9,2.8-6.3,5.7-5.6,11.4c4.4,36.1-7.8,65-37.9,85.7c-9.1,6.2-19.3,9.8-30.2,11.7
		c-1.8,0.3-3.5,0.8-5.3,1.2C117.1,415,112.5,415,107.9,415z M165.3,338.1c-0.3-2.9-0.5-5.4-0.8-7.8c-0.5-3.7-2.4-4.9-5.8-3.3
		c-2.5,1.2-5.1,2.3-7.7,3.4c-26.7,11.9-54.2,21.2-82.3,29.1c-2.1,0.6-5,2.1-5.7,3.9c-2,5.2-2.6,10.6,2.8,14.8c3,2.3,5.4,5.3,8.5,7.5
		c18.5,13.2,38.1,14.8,58.2,4.4C153.5,379.3,163.6,361.1,165.3,338.1z"/>
</svg>