<svg viewBox="0 0 400 560" >
	<path d="M94.8,125.7c-1.9-2.4-3.1-4-4.4-5.6c-1.8-2.3-1.3-3.6,1.6-4.3c8.7-1.8,17.5-3.7,26.3-6.3c-4.1-0.5-8.3-1.1-12.4-1.6
		c-4.1-0.5-8.3-0.8-12.4-1.6c-5.8-1.1-7.2-4-3.9-8.7c7.3-10.5,15-20.7,22.5-31c2.2-3.1,5.1-4.1,8.9-4c22.7,0.1,45.3,0.1,68,0.1
		c1.7,0,3.5,0,5.8,0c-0.8-4.6,1.9-9.2-2.3-12.9c-0.6-0.5-0.5-2-0.5-3c-0.3-11.3-0.5-22.6-0.7-33.9c-0.1-4.8,3.4-8,5.8-11.4
		c2.2-3.1,7.3-1,8.2,2.9c0.3,1.3,0.2,2.6,0.4,5c6.7-0.9,13.4-1.4,19.9-2.7c12.7-2.5,25.4-5.2,38.5-4c15.3,1.3,27.7,8.4,38.6,18.7
		c0.9,0.9,1.5,3.3,0.9,4.2c-0.6,0.9-2.8,1.3-4.2,1.2c-3.8-0.3-7.5-1-11.7-1.6c3.2,4.3,6,7.7,8.3,11.4c0.6,0.9,0.4,3-0.3,3.9
		c-0.5,0.7-2.5,1.2-3.5,0.7c-7.9-3.6-16.3-2.9-24.2-1.4c-10.3,1.9-20.6,4.8-30.4,8.4c-10.4,3.9-20.7,6.3-32,5.2c0,3.3,0,6,0,9.3
		c1.9,0,3.7,0,5.4,0c22.7,0,45.3,0.1,68-0.1c3.7,0,6.5,1,8.9,4c32.1,39.3,54.5,83.1,62.1,133.6c1.5,9.6,1.3,19.5,2.1,29.3
		c0.3,4-1.2,6.3-5,7.8c-9.2,3.8-18.2,8.1-27.2,13c5.5,0.7,11,1.4,16.4,2.1c3,0.4,5.9,0.8,8.9,1c3.5,0.3,4.7,2.2,4.2,5.4
		c-0.1,0.7-0.3,1.5-0.4,2.2c-2.3,11.4-2.3,11.4-13.3,14.9c0.2,0.4,0.4,0.9,0.7,1c9.4,3.8,7.2,5.8,4.5,12.9
		c-4.9,12.8-11.4,24.8-20.3,35.4c-2.8,3.3-5.9,4.7-10.3,4.9c-6.5,0.2-11.9-1.6-17.4-5.1c-27-17-55.9-30.4-86.1-40.9
		c-4.6-1.6-8.9-1.7-13.5-0.1c-31.6,11.1-61.7,25.2-89.8,43.3c-6.2,4-12.6,2.3-19,2.1c-1.3,0-2.8-1.7-3.8-2.9
		c-11.8-13.2-19.4-28.7-24.6-45.5c-0.6-1.9,0.5-4.5,1.1-6.7c0.4-1.2,1.5-2.2,2.2-3.3c0.6-1,1.2-2,2-3.3c-1-0.4-1.7-0.8-2.5-1
		c-7.3-1.5-7.3-1.6-8.5-9.1c-5.4-32.8-1.8-64.8,8.6-96.2c2.8-8.6,6.5-16.9,9.7-25.3c2-5.4,6.1-7.8,11.5-8.5
		C84.8,127.1,89.3,126.5,94.8,125.7z M149,136.3c1.6,6.6,3.1,13.2,4.8,19.8c1,4,2.8,7.9,3.3,11.9c0.7,5.5,3.5,8.6,8.4,10.9
		c5.3,2.6,10.5,5.6,15,9.3c9.5,7.8,28.8,8,38.5,0.4c5-3.9,10.6-7,16.1-10c4.1-2.2,6.8-4.9,7.6-9.6c0.6-4.1,2-8,3.1-12
		c1.3-5.1,3.2-10.2,3.9-15.5c2.6-19.1-6.3-34.7-24.1-42.3c-16.5-7-33.3-7.2-50-0.5C158.5,105.6,150,118.3,149,136.3z M214.6,220.5
		c9.9-4.3,18.8-8.1,27.5-12.1c5.8-2.7,11.8-3.8,18.2-3.3c2.8,0.2,5.7,0.1,8.4-0.4c3.4-0.7,6.7-2,7.3-6.1c0.6-4-2.2-6-5.2-7.5
		c-3-1.5-3.5-3.6-2.6-6.6c1.4-5-1.7-8.8-6.8-8.8c-4.6,0-6.9,3.1-8.9,6.5c-3.6,6.5-8.8,11.2-15.4,14.3c-11.5,5.5-23.1,11-34.7,16.3
		c-1.4,0.6-3.5,0.6-4.9,0c-11.4-5.2-22.7-10.5-33.9-15.9c-6.9-3.3-12.4-8-16.2-14.8c-1.1-2-2.7-4.4-4.7-5.1c-2.3-0.9-5.6-1-7.9-0.1
		c-1.7,0.7-4,4.2-3.5,5.4c2.2,5.6-0.9,8-4.8,10.8c-4.3,3.1-3.7,8.2,1.2,10.2c3.2,1.3,6.9,1.6,10.4,1.9c3.8,0.3,8.1-0.9,11.5,0.4
		c11.8,4.4,23.3,9.5,36,14.8c-9.6,4.2-17.8,8.5-26.5,11.4c-6.2,2.1-13,2.5-19.6,3.6c-3.2,0.5-6.6,0.3-9.7,1.2c-3.8,1-5.9,4-6.1,7.9
		c-0.2,3.9,2.7,4.8,5.7,5.7c1.3,0.3,2.5,1.1,3.5,1.8c2,1.5,2.5,3.2,1.5,5.8c-0.8,2-1.3,5.3-0.2,6.4c1.4,1.5,4.5,2,6.8,1.8
		c5.1-0.5,8.1-4.2,10.1-8.5c2.9-6.1,7.5-10.2,13.4-13.1c10.7-5.2,21.3-10.6,32.1-15.6c1.7-0.8,4.4-0.8,6.1,0
		c10.7,4.9,21.2,10.2,31.7,15.4c5.9,2.9,10.5,6.8,13.6,12.9c1.6,3.3,4.6,6.5,7.9,8.1c2.4,1.2,6.5,0.7,9.1-0.6
		c2.9-1.4,1.4-4.5,0.1-7.1c-0.6-1.2-0.2-3.6,0.7-4.5c1.4-1.5,3.6-2.5,5.6-3.3c4.2-1.6,5.4-4.3,3.6-8.4c-2.2-4.8-6.5-5.9-11.1-5.8
		c-7.5,0.1-14.9,0.2-22-2.9C233.4,228.7,224.5,224.8,214.6,220.5z"/>
	<path d="M105.2,472.8c-5.7-8.1-11.7-16.1-17.1-24.4c-13.1-20.1-23-41.8-31.4-64.3c-1.5-3.9-0.1-6.4,2.6-9
		C76.1,358.7,95,345,115,332.8c26.1-16,53.7-28.8,82.7-38.6c1.3-0.4,3-0.5,4.3,0c50.4,17.4,96.5,42.1,135.9,78.3
		c1.2,1.1,2.3,2.4,3.5,3.4c2.7,2.4,3.1,5,1.8,8.4c-11.5,31-26.1,60.1-47,86c-0.6,0.8-1.2,1.7-1.8,2.5c0.2,0.4,0.4,0.8,0.6,1.2
		c6.5-2.7,13.1-5,19.4-8.1c26.4-13.2,52.8-13.8,79.6-1.4c0.9,0.4,1.9,0.9,2.8,1.4c3,1.9,4.1,4.5,2.3,7.6c-1.7,2.8-4.3,3.2-7.4,1.8
		c-4.9-2.2-9.7-4.6-14.9-6c-19.5-5.5-38.4-3.7-56.4,5.6c-28.6,14.8-56.9,14.6-85.6-0.1c-23.5-12-47.4-11.6-70.8,0.4
		c-27.9,14.2-55.7,14.4-83.5,0.2c-23.6-12.1-47.4-12.2-71.3-0.8c-1.9,0.9-4.8,1.3-6.6,0.5c-4-1.7-3.3-7.2,1-9.5
		c15.7-8.2,32.5-11.3,50.2-9.5c11.7,1.2,22.6,5,33,10.4c5.7,2.9,12,4.9,18,7.3C104.9,473.5,105.1,473.1,105.2,472.8z M202.7,417.1
		c0,0,0.1-43.4,0.1-73.7c0-1,0.1-2.4-0.1-3c-0.6-1.5-1.4-3.5-2.3-3.9c-0.8-0.4-2.1,0.7-2.6,1.9c-0.6,1.3-0.7,3.6-0.7,5.4
		c0,30.1,0.1,74.2,0.1,74.2s0.9,20,2.7,20C201.7,438,202.7,417.1,202.7,417.1z"/>
	<path d="M46.8,494c14.1,0.6,26.6,3.9,38.4,10.1c24.5,12.9,49,12.8,73.6,0.2c26.2-13.4,52.8-13.9,79.5-1.5c1.1,0.5,2.1,1,3.1,1.7
		c2.9,1.8,3.5,4.5,1.9,7.3c-1.5,2.7-4,3.1-6.9,2c-7.1-2.7-14.1-5.8-21.4-7.5c-17.2-4-33.9-1.6-49.4,6.5
		c-29.2,15.3-58.1,15.3-87.1-0.2c-10.4-5.5-21.7-8-33.6-8.1c-3.3,0-5.9-1.6-5.7-4.8c0.1-1.9,1.9-4.1,3.6-5.4
		C43.8,493.6,45.9,494.1,46.8,494z"/>
	<path d="M277.6,560c-13.8-0.2-27.2-3.2-39.7-9.8c-24.2-12.8-48.6-13.5-73.2-1.2c-3.2,1.6-6.1,1.7-8.1-1.7c-1.7-2.8-0.4-6,3.4-7.9
		c26.6-13.2,53.4-13.5,79.9,0c24.6,12.5,48.9,13.4,73.7,1.1c3.3-1.7,6.3-1.5,8,1.9c1.6,3.4,0.1,5.9-3.2,7.6
		C305.6,556.7,292.1,559.8,277.6,560z"/>
	<path d="M281.2,524.3c-0.3,0-1.1,0-1.8,0c-4.4-0.1-6.8-1.9-6.9-5.3c0-3.3,2.3-5.3,6.8-5.4c12.8-0.3,24.6-3.7,35.8-9.7
		c12.1-6.5,25.2-9.7,39-9.9c4.4-0.1,6.8,1.9,6.8,5.2c0,3.3-2.4,5.3-6.8,5.4c-12.8,0.3-24.6,3.6-35.8,9.6
		C307,520.5,294.6,523.6,281.2,524.3z"/>
	<path d="M119.1,560c-13.2-0.7-25.3-3.7-36.6-9.5c-4.1-2.1-5.5-5-4.1-8.1c1.5-3,4.6-3.5,8.9-1.4c10.3,5.1,21.1,7.9,32.6,8.3
		c5.1,0.2,7.6,2,7.4,5.6c-0.2,3.4-2.7,5.1-7.5,5C119.4,559.9,119,560,119.1,560z"/>
	<path d="M219.4,140.3c10.7,0,16.9,4.1,17.7,11.5c0.6,5.9-1,11.4-6.2,14.8c-4.8,3.1-9.7,1.2-13.7-1.9c-3.6-2.8-7-6-9.5-9.8
		c-4-6.2-0.8-12.5,6.6-14C216.4,140.6,218.4,140.4,219.4,140.3z"/>
	<path d="M179,140.1c6,0.8,11.8,0.6,14.2,6.4c2.4,5.9-1.3,10.2-5.2,14.1c-1.9,1.9-4,3.6-6.3,4.9c-7.5,4.4-13.4,3-16.9-3.8
		c-4.3-8.5-2-16.7,5.9-19.7C173.6,140.8,176.8,140.6,179,140.1z"/>
	<path d="M203.9,179.7c-2.6,0.2-5.2,0.4-7.8,0.6c-2.8,0.2-4-1.3-3.2-3.9c1-3.2,2.1-6.5,3.6-9.5c0.6-1.2,2.4-2.4,3.7-2.5
		c1-0.1,2.7,1.3,3.2,2.5c1.5,3.1,2.6,6.3,3.6,9.5C207.9,178.9,206.7,180.3,203.9,179.7z"/>
</svg>
