<svg x="0px" y="0px" viewBox="0 0 400 400" >
	<path d="M76.2,30.6c24.9-0.3,46,20.5,46.4,45.7c0.4,24.8-20.5,46-45.7,46.4c-25,0.3-46-20.5-46.3-46.2C30.2,51.8,51,30.9,76.2,30.6
		z"/>
	<path d="M277.4,75.7c0.1-24.6,21.3-45.2,46.4-45.1c24.6,0.1,45.5,21.1,45.6,46c0.1,24.9-21,46-46,46.1
		C298.1,122.6,277.3,101.5,277.4,75.7z"/>
	<path d="M76.2,277.4c24.9-0.3,46,20.5,46.4,45.7c0.4,24.8-20.5,46-45.7,46.4c-25,0.3-46-20.5-46.3-46.2
		C30.2,298.6,51,277.7,76.2,277.4z"/>
	<path d="M277.4,322.4c0.1-24.6,21.4-45.2,46.6-45c24.7,0.2,45.6,21.4,45.5,46.1c-0.1,25-21.2,46.1-46.1,45.9
		C297.8,369.3,277.3,348.2,277.4,322.4z"/>
	<path d="M200,246c-25,0-46-21.1-46-46.1c0-25,21.1-46,46.1-46c25,0,46,21.1,46,46.1C246,225,225,246.1,200,246z"/>
</svg>
