<svg viewBox="0 0 400 400">
	<path d="M76.2,30.6c24.9-0.3,46,20.5,46.4,45.7c0.4,24.8-20.5,46-45.7,46.4c-25,0.3-46-20.5-46.3-46.2C30.2,51.8,51,30.9,76.2,30.6
		z"/>
	<path d="M323.4,30.6c24.8-0.2,46,21,46.1,46c0.1,25-21,46.1-46,46c-25.2,0-45.8-20.9-46-46.5C277.2,51.5,298.2,30.7,323.4,30.6z"/>
	<path d="M30.6,322.5c0.1-24.6,21.3-45.2,46.4-45.1c24.6,0.1,45.5,21.2,45.6,46c0.1,24.9-21,46-46,46.1
		C51.2,369.5,30.5,348.3,30.6,322.5z"/>
	<path d="M323.3,277.4c24.8-0.2,46,20.9,46.1,46c0.1,24.9-21,46-46,46.1c-25.2,0-45.9-20.8-46.1-46.5
		C277.2,298.4,298.1,277.6,323.3,277.4z"/>
</svg>