<svg viewBox="0 0 400 400" >
	<path d="M30.6,75.4c0.2-24.6,21.6-45.1,46.7-44.8c24.7,0.3,45.6,21.6,45.4,46.3c-0.2,25.1-21.4,46.1-46.3,45.8
		C50.8,122.3,30.3,101.2,30.6,75.4z"/>
	<path d="M323.3,30.6c24.8-0.2,46,20.9,46.1,45.9c0.1,24.9-21,46-46,46.1c-25.2,0.1-45.9-20.8-46.1-46.5
		C277.2,51.5,298.1,30.8,323.3,30.6z"/>
	<path d="M76.2,277.4c24.8-0.3,46,20.5,46.4,45.7c0.4,24.8-20.6,46-45.7,46.3c-25,0.3-46-20.5-46.3-46.2
		C30.2,298.6,51,277.7,76.2,277.4z"/>
	<path d="M277.4,322.3c0.2-24.6,21.5-45.1,46.6-44.9c24.7,0.3,45.6,21.5,45.4,46.2c-0.2,25.1-21.3,46.1-46.2,45.8
		C297.7,369.2,277.2,348.1,277.4,322.3z"/>
	<path d="M76.8,246c-24.9,0.2-46-20.8-46.2-45.9c-0.2-24.9,20.8-46,45.9-46.2c24.9-0.2,46,20.8,46.2,45.9
		C122.8,224.7,101.8,245.8,76.8,246z"/>
	<path d="M323.5,246c-25,0-46-21-46.1-46c0-25,21-46,46-46.1c25,0,46,21,46.1,46C369.5,224.9,348.5,246,323.5,246z"/>
</svg>